<svg xmlns="http://www.w3.org/2000/svg" xmlns:xlink="http://www.w3.org/1999/xlink" width="500" zoomAndPan="magnify" viewBox="0 0 375 374.999991" height="500" preserveAspectRatio="xMidYMid meet" version="1.0"><defs><g/><clipPath id="8d7ed6b444"><path d="M 57 5.960938 L 107 5.960938 L 107 75 L 57 75 Z M 57 5.960938 " clip-rule="nonzero"/></clipPath><clipPath id="09a35a3320"><path d="M 57 300 L 107 300 L 107 368.960938 L 57 368.960938 Z M 57 300 " clip-rule="nonzero"/></clipPath><clipPath id="b3534d9dc8"><path d="M 102 20 L 341.667969 20 L 341.667969 355 L 102 355 Z M 102 20 " clip-rule="nonzero"/></clipPath><clipPath id="f4483d13be"><path d="M 33.417969 18 L 131 18 L 131 357 L 33.417969 357 Z M 33.417969 18 " clip-rule="nonzero"/></clipPath></defs><path fill="#ffffff" d="M 69.796875 71.058594 C 65.121094 71.058594 61.3125 67.53125 61.3125 63.195312 L 61.3125 17.414062 C 61.3125 13.078125 65.121094 9.550781 69.796875 9.550781 L 94.550781 9.550781 C 99.230469 9.550781 103.035156 13.078125 103.035156 17.414062 L 103.035156 63.195312 C 103.035156 67.53125 99.230469 71.058594 94.550781 71.058594 L 69.796875 71.058594 " fill-opacity="1" fill-rule="nonzero"/><g clip-path="url(#8d7ed6b444)"><path fill="#0c0d0d" d="M 94.550781 5.964844 L 69.796875 5.964844 C 63.140625 5.964844 57.722656 11.101562 57.722656 17.417969 L 57.722656 63.195312 C 57.722656 69.511719 63.140625 74.648438 69.796875 74.648438 L 94.550781 74.648438 C 101.207031 74.648438 106.625 69.511719 106.625 63.195312 L 106.625 17.417969 C 106.625 11.101562 101.207031 5.964844 94.550781 5.964844 Z M 94.550781 13.136719 C 97.253906 13.136719 99.445312 15.054688 99.445312 17.417969 L 99.445312 63.195312 C 99.445312 65.558594 97.253906 67.472656 94.550781 67.472656 L 69.796875 67.472656 C 67.09375 67.472656 64.902344 65.558594 64.902344 63.195312 L 64.902344 17.417969 C 64.902344 15.054688 67.09375 13.136719 69.796875 13.136719 L 94.550781 13.136719 " fill-opacity="1" fill-rule="nonzero"/></g><path fill="#ffffff" d="M 69.796875 365.375 C 65.121094 365.375 61.3125 361.84375 61.3125 357.511719 L 61.3125 311.730469 C 61.3125 307.394531 65.121094 303.863281 69.796875 303.863281 L 94.550781 303.863281 C 99.230469 303.863281 103.035156 307.394531 103.035156 311.730469 L 103.035156 357.511719 C 103.035156 361.84375 99.230469 365.375 94.550781 365.375 L 69.796875 365.375 " fill-opacity="1" fill-rule="nonzero"/><g clip-path="url(#09a35a3320)"><path fill="#0c0d0d" d="M 94.550781 300.277344 L 69.796875 300.277344 C 63.140625 300.277344 57.722656 305.414062 57.722656 311.730469 L 57.722656 357.511719 C 57.722656 363.824219 63.140625 368.960938 69.796875 368.960938 L 94.550781 368.960938 C 101.207031 368.960938 106.625 363.824219 106.625 357.511719 L 106.625 311.730469 C 106.625 305.414062 101.207031 300.277344 94.550781 300.277344 Z M 94.550781 307.453125 C 97.253906 307.453125 99.445312 309.367188 99.445312 311.730469 L 99.445312 357.511719 C 99.445312 359.875 97.253906 361.789062 94.550781 361.789062 L 69.796875 361.789062 C 67.09375 361.789062 64.902344 359.875 64.902344 357.511719 L 64.902344 311.730469 C 64.902344 309.367188 67.09375 307.453125 69.796875 307.453125 L 94.550781 307.453125 " fill-opacity="1" fill-rule="nonzero"/></g><path fill="#ffffff" d="M 234.171875 161.527344 C 234.015625 161.527344 233.859375 161.519531 233.699219 161.496094 L 182.3125 154.703125 C 181.320312 154.574219 180.429688 154.035156 179.851562 153.214844 C 179.273438 152.398438 179.066406 151.375 179.273438 150.398438 L 200.738281 50.1875 C 200.976562 49.09375 201.703125 48.175781 202.714844 47.699219 L 238.121094 30.921875 C 238.605469 30.6875 239.132812 30.574219 239.65625 30.574219 C 240.144531 30.574219 240.632812 30.671875 241.09375 30.871094 C 242.039062 31.285156 242.765625 32.085938 243.078125 33.074219 C 244.039062 36.09375 266.226562 107.613281 237.308594 159.683594 C 236.671875 160.832031 235.460938 161.527344 234.171875 161.527344 " fill-opacity="1" fill-rule="nonzero"/><path fill="#0c0d0d" d="M 239.660156 26.984375 C 238.609375 26.984375 237.558594 27.214844 236.585938 27.675781 L 201.179688 44.453125 C 199.160156 45.410156 197.703125 47.25 197.234375 49.433594 L 175.765625 149.644531 C 175.347656 151.601562 175.765625 153.648438 176.917969 155.28125 C 178.074219 156.917969 179.859375 157.996094 181.84375 158.257812 L 233.230469 165.050781 C 233.546875 165.09375 233.863281 165.113281 234.171875 165.113281 C 236.757812 165.113281 239.171875 163.71875 240.449219 161.421875 C 252.800781 139.179688 257.746094 109.699219 254.753906 76.164062 C 252.519531 51.140625 246.746094 32.757812 246.503906 31.988281 C 245.875 30.015625 244.425781 28.402344 242.523438 27.578125 C 241.609375 27.179688 240.632812 26.984375 239.660156 26.984375 Z M 239.660156 34.160156 C 239.660156 34.160156 262.671875 106.621094 234.171875 157.9375 L 182.785156 151.148438 L 204.253906 50.933594 L 239.660156 34.160156 " fill-opacity="1" fill-rule="nonzero"/><path fill="#ffffff" d="M 117.601562 350.972656 C 116.871094 350.972656 116.148438 350.75 115.535156 350.320312 C 114.605469 349.667969 114.042969 348.613281 114.011719 347.476562 L 106.222656 38.621094 C 106.175781 36.84375 107.441406 35.300781 109.195312 34.996094 C 109.828125 34.886719 173.097656 23.949219 211.273438 23.949219 C 230.929688 23.949219 240.726562 26.714844 243.023438 32.914062 C 243.085938 33.078125 243.132812 33.242188 243.171875 33.410156 C 245.1875 42.886719 237.828125 49.058594 230.707031 55.027344 C 224.027344 60.625 217.125 66.410156 217.289062 75 C 217.335938 77.414062 217.421875 81.898438 237.785156 81.898438 C 238.382812 81.898438 238.988281 81.898438 239.617188 81.886719 C 240.242188 81.878906 302.546875 81.113281 333.953125 77.632812 C 334.085938 77.617188 334.214844 77.609375 334.351562 77.609375 C 335.28125 77.609375 336.179688 77.972656 336.855469 78.628906 C 337.625 79.378906 338.019531 80.433594 337.925781 81.503906 C 337.746094 83.582031 333.210938 132.988281 303.988281 191.265625 C 286.816406 225.515625 264.644531 255.601562 238.089844 280.691406 C 204.886719 312.058594 164.726562 335.644531 118.722656 350.792969 C 118.355469 350.914062 117.980469 350.972656 117.601562 350.972656 " fill-opacity="1" fill-rule="nonzero"/><g clip-path="url(#b3534d9dc8)"><path fill="#0c0d0d" d="M 211.28125 20.363281 L 211.28125 27.535156 L 211.28125 20.363281 C 172.789062 20.363281 111.183594 31.007812 108.578125 31.460938 C 105.074219 32.070312 102.542969 35.15625 102.632812 38.710938 L 110.425781 347.566406 C 110.484375 349.835938 111.609375 351.945312 113.46875 353.25 C 114.691406 354.113281 116.140625 354.5625 117.601562 354.5625 C 118.355469 354.5625 119.113281 354.445312 119.847656 354.199219 C 166.355469 338.886719 206.96875 315.03125 240.554688 283.296875 C 267.410156 257.917969 289.835938 227.496094 307.195312 192.875 C 335.996094 135.4375 341.078125 86.390625 341.480469 82.058594 C 341.511719 81.777344 341.53125 81.488281 341.53125 81.199219 C 341.53125 77.261719 338.359375 74.066406 334.433594 74.023438 C 334.402344 74.023438 334.378906 74.023438 334.351562 74.023438 C 334.285156 74.023438 334.214844 74.023438 334.148438 74.027344 C 333.917969 74.03125 333.6875 74.050781 333.457031 74.078125 C 302.195312 77.527344 240.195312 78.292969 239.574219 78.300781 C 238.960938 78.308594 238.367188 78.3125 237.789062 78.3125 C 223.441406 78.3125 221.066406 75.90625 220.96875 75.796875 C 220.972656 75.792969 220.890625 75.550781 220.878906 74.929688 C 220.753906 68.535156 225.601562 63.984375 233.011719 57.777344 C 240.203125 51.75 249.148438 44.25 246.683594 32.667969 C 246.605469 32.324219 246.511719 31.992188 246.386719 31.664062 C 243.453125 23.742188 232.949219 20.363281 211.28125 20.363281 Z M 334.347656 81.199219 L 334.355469 81.199219 M 211.273438 27.535156 C 226.539062 27.535156 237.851562 29.28125 239.660156 34.160156 C 242.898438 49.363281 213.316406 55.085938 213.699219 75.066406 C 213.820312 81.238281 217.800781 85.488281 237.789062 85.488281 C 238.394531 85.488281 239.019531 85.484375 239.660156 85.476562 C 239.660156 85.476562 302.398438 84.738281 334.347656 81.199219 C 334.347656 81.199219 317.074219 281.703125 117.601562 347.386719 L 109.808594 38.53125 C 109.808594 38.53125 172.964844 27.539062 211.273438 27.535156 " fill-opacity="1" fill-rule="nonzero"/></g><path fill="#ffffff" d="M 52.960938 352.453125 C 44.234375 352.453125 37.132812 346.046875 37.132812 338.171875 L 37.132812 36.570312 C 37.132812 28.695312 44.234375 22.289062 52.960938 22.289062 L 111.386719 22.289062 C 120.117188 22.289062 127.21875 28.695312 127.21875 36.570312 L 127.21875 338.171875 C 127.21875 346.046875 120.117188 352.453125 111.386719 352.453125 L 52.960938 352.453125 " fill-opacity="1" fill-rule="nonzero"/><g clip-path="url(#f4483d13be)"><path fill="#0c0d0d" d="M 111.386719 18.703125 L 52.960938 18.703125 C 42.253906 18.703125 33.542969 26.71875 33.542969 36.574219 L 33.542969 338.171875 C 33.542969 348.023438 42.253906 356.042969 52.960938 356.042969 L 111.386719 356.042969 C 122.09375 356.042969 130.804688 348.023438 130.804688 338.171875 L 130.804688 36.574219 C 130.804688 26.71875 122.09375 18.703125 111.386719 18.703125 Z M 111.386719 25.875 C 118.148438 25.875 123.628906 30.664062 123.628906 36.574219 L 123.628906 338.171875 C 123.628906 344.078125 118.148438 348.867188 111.386719 348.867188 L 52.960938 348.867188 C 46.203125 348.867188 40.722656 344.078125 40.722656 338.171875 L 40.722656 36.574219 C 40.722656 30.664062 46.203125 25.875 52.960938 25.875 L 111.386719 25.875 " fill-opacity="1" fill-rule="nonzero"/></g><path fill="#0c0d0d" d="M 140.617188 258.125 C 139.335938 258.125 138.097656 257.4375 137.449219 256.226562 C 136.511719 254.480469 137.171875 252.308594 138.917969 251.371094 C 182.984375 227.785156 214.472656 77.527344 214.785156 76.011719 C 215.1875 74.070312 217.078125 72.828125 219.027344 73.222656 C 220.964844 73.625 222.21875 75.519531 221.816406 77.460938 C 220.511719 83.78125 189.308594 232.546875 142.304688 257.699219 C 141.765625 257.988281 141.1875 258.125 140.617188 258.125 " fill-opacity="1" fill-rule="nonzero"/><path fill="#0c0d0d" d="M 129.726562 316.761719 C 128.808594 316.761719 128.285156 316.683594 128.136719 316.65625 C 126.183594 316.320312 124.875 314.460938 125.214844 312.507812 C 125.550781 310.582031 127.363281 309.28125 129.289062 309.578125 C 129.96875 309.644531 161.90625 311.957031 239.25 224.242188 C 240.5625 222.757812 242.828125 222.613281 244.316406 223.921875 C 245.804688 225.234375 245.945312 227.5 244.636719 228.988281 C 171.867188 311.515625 137.320312 316.761719 129.726562 316.761719 " fill-opacity="1" fill-rule="nonzero"/><g fill="#ffffff" fill-opacity="1"><g transform="translate(260.390612, 343.124977)"><g><path d="M 2.109375 0.078125 C 1.804688 0.078125 1.566406 -0.00390625 1.390625 -0.171875 C 1.222656 -0.335938 1.140625 -0.5625 1.140625 -0.84375 C 1.140625 -1.113281 1.222656 -1.332031 1.390625 -1.5 C 1.566406 -1.675781 1.804688 -1.765625 2.109375 -1.765625 C 2.410156 -1.765625 2.644531 -1.679688 2.8125 -1.515625 C 2.988281 -1.347656 3.078125 -1.128906 3.078125 -0.859375 C 3.078125 -0.578125 2.988281 -0.347656 2.8125 -0.171875 C 2.632812 -0.00390625 2.398438 0.078125 2.109375 0.078125 Z M 2.109375 0.078125 "/></g></g></g></svg>