<svg xmlns="http://www.w3.org/2000/svg" xmlns:xlink="http://www.w3.org/1999/xlink" width="500" zoomAndPan="magnify" viewBox="0 0 375 374.999991" height="500" preserveAspectRatio="xMidYMid meet" version="1.0"><defs><g/><clipPath id="d9c12e34bb"><path d="M 57 5.960938 L 107 5.960938 L 107 75 L 57 75 Z M 57 5.960938 " clip-rule="nonzero"/></clipPath><clipPath id="6f82df9cae"><path d="M 57 300 L 107 300 L 107 368.960938 L 57 368.960938 Z M 57 300 " clip-rule="nonzero"/></clipPath><clipPath id="494170a356"><path d="M 102 20 L 341.667969 20 L 341.667969 355 L 102 355 Z M 102 20 " clip-rule="nonzero"/></clipPath><clipPath id="ff58915d91"><path d="M 33.417969 18 L 131 18 L 131 357 L 33.417969 357 Z M 33.417969 18 " clip-rule="nonzero"/></clipPath></defs><path fill="#0c0d0d" d="M 69.789062 71.070312 C 65.109375 71.070312 61.304688 67.542969 61.304688 63.203125 L 61.304688 17.417969 C 61.304688 13.082031 65.109375 9.550781 69.789062 9.550781 L 94.53125 9.550781 C 99.210938 9.550781 103.015625 13.082031 103.015625 17.417969 L 103.015625 63.203125 C 103.015625 67.542969 99.210938 71.070312 94.53125 71.070312 L 69.789062 71.070312 " fill-opacity="1" fill-rule="nonzero"/><g clip-path="url(#d9c12e34bb)"><path fill="#ffffff" d="M 94.53125 5.964844 L 69.785156 5.964844 C 63.132812 5.964844 57.714844 11.101562 57.714844 17.417969 L 57.714844 63.207031 C 57.714844 69.523438 63.132812 74.660156 69.785156 74.660156 L 94.53125 74.660156 C 101.1875 74.660156 106.601562 69.523438 106.601562 63.207031 L 106.601562 17.417969 C 106.601562 11.101562 101.1875 5.964844 94.53125 5.964844 Z M 94.53125 13.140625 C 97.234375 13.140625 99.425781 15.058594 99.425781 17.417969 L 99.425781 63.207031 C 99.425781 65.570312 97.234375 67.484375 94.53125 67.484375 L 69.785156 67.484375 C 67.082031 67.484375 64.890625 65.570312 64.890625 63.207031 L 64.890625 17.417969 C 64.890625 15.058594 67.082031 13.140625 69.785156 13.140625 L 94.53125 13.140625 " fill-opacity="1" fill-rule="nonzero"/></g><path fill="#0c0d0d" d="M 69.789062 365.445312 C 65.109375 365.445312 61.304688 361.914062 61.304688 357.578125 L 61.304688 311.789062 C 61.304688 307.453125 65.109375 303.921875 69.789062 303.921875 L 94.53125 303.921875 C 99.210938 303.921875 103.015625 307.453125 103.015625 311.789062 L 103.015625 357.578125 C 103.015625 361.914062 99.210938 365.445312 94.53125 365.445312 L 69.789062 365.445312 " fill-opacity="1" fill-rule="nonzero"/><g clip-path="url(#6f82df9cae)"><path fill="#ffffff" d="M 94.53125 300.335938 L 69.789062 300.335938 C 63.132812 300.335938 57.714844 305.472656 57.714844 311.789062 L 57.714844 357.578125 C 57.714844 363.894531 63.132812 369.03125 69.789062 369.03125 L 94.53125 369.03125 C 101.1875 369.03125 106.601562 363.894531 106.601562 357.578125 L 106.601562 311.789062 C 106.601562 305.472656 101.1875 300.335938 94.53125 300.335938 Z M 94.53125 307.511719 C 97.234375 307.511719 99.425781 309.425781 99.425781 311.789062 L 99.425781 357.578125 C 99.425781 359.941406 97.234375 361.855469 94.53125 361.855469 L 69.789062 361.855469 C 67.082031 361.855469 64.890625 359.941406 64.890625 357.578125 L 64.890625 311.789062 C 64.890625 309.425781 67.082031 307.511719 69.789062 307.511719 L 94.53125 307.511719 " fill-opacity="1" fill-rule="nonzero"/></g><path fill="#0c0d0d" d="M 234.109375 161.558594 C 233.953125 161.558594 233.796875 161.546875 233.640625 161.527344 L 182.269531 154.734375 C 181.277344 154.601562 180.382812 154.0625 179.804688 153.246094 C 179.230469 152.425781 179.019531 151.40625 179.230469 150.425781 L 200.6875 50.195312 C 200.925781 49.101562 201.652344 48.183594 202.664062 47.707031 L 238.058594 30.925781 C 238.542969 30.691406 239.070312 30.578125 239.59375 30.578125 C 240.082031 30.578125 240.570312 30.675781 241.027344 30.875 C 241.976562 31.289062 242.703125 32.089844 243.015625 33.082031 C 243.972656 36.097656 266.15625 107.632812 237.246094 159.710938 C 236.609375 160.863281 235.398438 161.558594 234.109375 161.558594 " fill-opacity="1" fill-rule="nonzero"/><path fill="#ffffff" d="M 239.597656 26.988281 C 238.546875 26.988281 237.496094 27.21875 236.523438 27.679688 L 201.128906 44.460938 C 199.109375 45.417969 197.652344 47.257812 197.183594 49.441406 L 175.722656 149.671875 C 175.304688 151.628906 175.722656 153.675781 176.875 155.3125 C 178.027344 156.945312 179.816406 158.027344 181.796875 158.289062 L 233.167969 165.082031 C 233.484375 165.125 233.800781 165.144531 234.113281 165.144531 C 236.695312 165.144531 239.109375 163.75 240.386719 161.453125 C 252.734375 139.207031 257.679688 109.71875 254.6875 76.179688 C 252.453125 51.152344 246.679688 32.761719 246.4375 31.992188 C 245.8125 30.019531 244.359375 28.410156 242.460938 27.582031 C 241.546875 27.183594 240.570312 26.988281 239.597656 26.988281 Z M 239.597656 34.164062 C 239.597656 34.164062 262.601562 106.640625 234.113281 157.96875 L 182.738281 151.175781 L 204.199219 50.945312 L 239.597656 34.164062 " fill-opacity="1" fill-rule="nonzero"/><path fill="#0c0d0d" d="M 117.574219 351.039062 C 116.84375 351.039062 116.121094 350.816406 115.511719 350.386719 C 114.582031 349.734375 114.019531 348.679688 113.988281 347.542969 L 106.199219 38.625 C 106.15625 36.847656 107.417969 35.304688 109.171875 35 C 109.804688 34.890625 173.058594 23.953125 211.21875 23.953125 C 230.871094 23.953125 240.664062 26.71875 242.960938 32.917969 C 243.023438 33.082031 243.070312 33.246094 243.105469 33.417969 C 245.125 42.894531 237.765625 49.066406 230.644531 55.035156 C 223.972656 60.632812 217.070312 66.421875 217.234375 75.011719 C 217.28125 77.425781 217.367188 81.914062 237.722656 81.914062 C 238.320312 81.914062 238.925781 81.910156 239.550781 81.902344 C 240.179688 81.894531 302.464844 81.128906 333.863281 77.644531 C 333.996094 77.632812 334.125 77.625 334.257812 77.625 C 335.1875 77.625 336.089844 77.984375 336.761719 78.644531 C 337.535156 79.394531 337.925781 80.449219 337.832031 81.519531 C 337.652344 83.59375 333.121094 133.011719 303.90625 191.304688 C 286.738281 225.558594 264.574219 255.648438 238.027344 280.742188 C 204.835938 312.121094 164.6875 335.710938 118.699219 350.863281 C 118.332031 350.984375 117.953125 351.039062 117.574219 351.039062 " fill-opacity="1" fill-rule="nonzero"/><g clip-path="url(#494170a356)"><path fill="#ffffff" d="M 211.226562 20.367188 L 211.226562 27.539062 L 211.226562 20.367188 C 172.746094 20.367188 111.160156 31.015625 108.554688 31.464844 C 105.050781 32.074219 102.523438 35.160156 102.613281 38.714844 L 110.402344 347.632812 C 110.460938 349.902344 111.585938 352.011719 113.441406 353.320312 C 114.667969 354.183594 116.113281 354.628906 117.574219 354.628906 C 118.328125 354.628906 119.085938 354.511719 119.820312 354.269531 C 166.316406 338.953125 206.914062 315.09375 240.492188 283.351562 C 267.339844 257.96875 289.757812 227.539062 307.113281 192.914062 C 335.90625 135.464844 340.984375 86.40625 341.386719 82.070312 C 341.417969 81.789062 341.4375 81.5 341.4375 81.214844 C 341.4375 77.277344 338.269531 74.078125 334.339844 74.035156 C 334.3125 74.035156 334.285156 74.035156 334.261719 74.035156 C 334.191406 74.035156 334.121094 74.035156 334.058594 74.039062 C 333.824219 74.046875 333.597656 74.0625 333.367188 74.089844 C 302.113281 77.542969 240.132812 78.308594 239.511719 78.316406 C 238.898438 78.324219 238.304688 78.328125 237.726562 78.328125 C 223.386719 78.328125 221.011719 75.921875 220.910156 75.8125 C 220.914062 75.804688 220.832031 75.566406 220.820312 74.945312 C 220.699219 68.546875 225.542969 63.996094 232.953125 57.785156 C 240.136719 51.757812 249.082031 44.257812 246.617188 32.671875 C 246.539062 32.332031 246.445312 31.996094 246.324219 31.667969 C 243.386719 23.746094 232.890625 20.367188 211.226562 20.367188 Z M 334.257812 81.214844 L 334.261719 81.214844 M 211.21875 27.539062 C 226.480469 27.539062 237.789062 29.285156 239.597656 34.164062 C 242.835938 49.371094 213.261719 55.097656 213.644531 75.082031 C 213.765625 81.253906 217.746094 85.503906 237.726562 85.503906 C 238.332031 85.503906 238.957031 85.5 239.597656 85.492188 C 239.597656 85.492188 302.316406 84.753906 334.257812 81.214844 C 334.257812 81.214844 316.988281 281.757812 117.574219 347.453125 L 109.785156 38.539062 C 109.785156 38.539062 172.925781 27.542969 211.21875 27.539062 " fill-opacity="1" fill-rule="nonzero"/></g><path fill="#0c0d0d" d="M 52.957031 352.523438 C 44.230469 352.523438 37.132812 346.113281 37.132812 338.234375 L 37.132812 36.578125 C 37.132812 28.703125 44.230469 22.292969 52.957031 22.292969 L 111.363281 22.292969 C 120.089844 22.292969 127.1875 28.703125 127.1875 36.578125 L 127.1875 338.234375 C 127.1875 346.113281 120.089844 352.523438 111.363281 352.523438 L 52.957031 352.523438 " fill-opacity="1" fill-rule="nonzero"/><g clip-path="url(#ff58915d91)"><path fill="#ffffff" d="M 111.363281 18.703125 L 52.957031 18.703125 C 42.25 18.703125 33.542969 26.722656 33.542969 36.578125 L 33.542969 338.238281 C 33.542969 348.089844 42.25 356.113281 52.957031 356.113281 L 111.363281 356.113281 C 122.066406 356.113281 130.777344 348.089844 130.777344 338.238281 L 130.777344 36.578125 C 130.777344 26.722656 122.066406 18.703125 111.363281 18.703125 Z M 111.363281 25.878906 C 118.121094 25.878906 123.601562 30.667969 123.601562 36.578125 L 123.601562 338.238281 C 123.601562 344.144531 118.121094 348.933594 111.363281 348.933594 L 52.957031 348.933594 C 46.199219 348.933594 40.71875 344.144531 40.71875 338.238281 L 40.71875 36.578125 C 40.71875 30.667969 46.199219 25.878906 52.957031 25.878906 L 111.363281 25.878906 " fill-opacity="1" fill-rule="nonzero"/></g><path fill="#ffffff" d="M 140.582031 258.171875 C 139.300781 258.171875 138.0625 257.484375 137.417969 256.277344 C 136.480469 254.53125 137.136719 252.355469 138.886719 251.417969 C 182.941406 227.828125 214.417969 77.539062 214.730469 76.027344 C 215.132812 74.085938 217.023438 72.839844 218.96875 73.238281 C 220.910156 73.636719 222.160156 75.535156 221.757812 77.476562 C 220.453125 83.796875 189.257812 232.589844 142.273438 257.75 C 141.734375 258.035156 141.15625 258.171875 140.582031 258.171875 " fill-opacity="1" fill-rule="nonzero"/><path fill="#ffffff" d="M 129.699219 316.820312 C 128.78125 316.820312 128.257812 316.746094 128.109375 316.71875 C 126.15625 316.378906 124.847656 314.519531 125.1875 312.570312 C 125.523438 310.640625 127.335938 309.339844 129.257812 309.636719 C 129.9375 309.703125 161.867188 312.015625 239.1875 224.285156 C 240.5 222.800781 242.761719 222.65625 244.25 223.964844 C 245.738281 225.277344 245.882812 227.542969 244.570312 229.03125 C 171.828125 311.574219 137.289062 316.820312 129.699219 316.820312 " fill-opacity="1" fill-rule="nonzero"/><g fill="#ffffff" fill-opacity="1"><g transform="translate(260.390612, 343.124977)"><g><path d="M 2.109375 0.078125 C 1.804688 0.078125 1.566406 -0.00390625 1.390625 -0.171875 C 1.222656 -0.335938 1.140625 -0.5625 1.140625 -0.84375 C 1.140625 -1.113281 1.222656 -1.332031 1.390625 -1.5 C 1.566406 -1.675781 1.804688 -1.765625 2.109375 -1.765625 C 2.410156 -1.765625 2.644531 -1.679688 2.8125 -1.515625 C 2.988281 -1.347656 3.078125 -1.128906 3.078125 -0.859375 C 3.078125 -0.578125 2.988281 -0.347656 2.8125 -0.171875 C 2.632812 -0.00390625 2.398438 0.078125 2.109375 0.078125 Z M 2.109375 0.078125 "/></g></g></g></svg>