<svg width="16" height="16" viewBox="0 0 16 16" fill="none" xmlns="http://www.w3.org/2000/svg">
<path d="M6.09615 13.8548V11.8102C6.09614 11.2921 6.51744 10.8712 7.03928 10.8679H8.9554C9.47957 10.8679 9.9045 11.2898 9.9045 11.8102V11.8102V13.8489C9.90449 14.2982 10.2697 14.6634 10.7223 14.6667H12.0295C12.6401 14.6683 13.2262 14.4286 13.6584 14.0005C14.0907 13.5725 14.3337 12.9912 14.3337 12.3851V6.57727C14.3336 6.08763 14.115 5.62318 13.7367 5.30904L9.29564 1.78289C8.51933 1.16612 7.41057 1.18605 6.65725 1.8303L2.31167 5.30904C1.91549 5.61392 1.67869 6.07975 1.66699 6.57727V12.3791C1.66699 13.6425 2.69858 14.6667 3.97111 14.6667H5.24852C5.46644 14.6683 5.67598 14.5834 5.83064 14.431C5.9853 14.2786 6.07228 14.0711 6.07227 13.8548H6.09615Z" fill="#FF3B30"/>
</svg>
