<svg xmlns="http://www.w3.org/2000/svg" xmlns:xlink="http://www.w3.org/1999/xlink" width="500" zoomAndPan="magnify" viewBox="0 0 375 374.999991" height="500" preserveAspectRatio="xMidYMid meet" version="1.0"><defs><g/></defs><path fill="#000000" d="M 269.148438 344.085938 C 345.523438 273.636719 288.945312 122.421875 285.066406 111.160156 C 277.996094 90.171875 279.066406 74.5625 301.953125 94.277344 C 306.492188 94.929688 313.859375 84 313.382812 77.542969 C 300.269531 69.238281 257.652344 29.988281 253.128906 13.367188 C 250.042969 9.011719 227.667969 11.761719 221.714844 13.308594 C 222.960938 26.84375 333.269531 265.269531 236.347656 305.046875 C 203.648438 318.464844 109.917969 307.253906 159.152344 204.371094 C 159.152344 204.371094 47.4375 240.714844 127.28125 366.195312 C 120.101562 335.054688 122.550781 329.257812 122.550781 329.257812 C 158.585938 377.34375 238.75 372.128906 269.152344 344.085938 Z M 269.148438 344.085938 " fill-opacity="1" fill-rule="nonzero"/><g fill="#ffffff" fill-opacity="1"><g transform="translate(89.660204, 77.136624)"><g><path d="M 2.109375 0.078125 C 1.804688 0.078125 1.566406 -0.00390625 1.390625 -0.171875 C 1.222656 -0.335938 1.140625 -0.5625 1.140625 -0.84375 C 1.140625 -1.113281 1.222656 -1.332031 1.390625 -1.5 C 1.566406 -1.675781 1.804688 -1.765625 2.109375 -1.765625 C 2.410156 -1.765625 2.644531 -1.679688 2.8125 -1.515625 C 2.988281 -1.347656 3.078125 -1.128906 3.078125 -0.859375 C 3.078125 -0.578125 2.988281 -0.347656 2.8125 -0.171875 C 2.632812 -0.00390625 2.398438 0.078125 2.109375 0.078125 Z M 2.109375 0.078125 "/></g></g></g></svg>