<svg width="16" height="18" viewBox="0 0 16 18" fill="none" xmlns="http://www.w3.org/2000/svg">
<path d="M14.4744 8.7044C13.8657 7.99354 13.5891 7.3775 13.5891 6.33092V5.97507C13.5891 4.61124 13.2752 3.73251 12.5927 2.85379C11.5409 1.48912 9.77015 0.666626 8.03669 0.666626H7.96298C6.26596 0.666626 4.55072 1.45135 3.48067 2.76063C2.76095 3.65698 2.41061 4.57347 2.41061 5.97507V6.33092C2.41061 7.3775 2.15221 7.99354 1.52524 8.7044C1.06393 9.22812 0.916504 9.90122 0.916504 10.6297C0.916504 11.359 1.15586 12.0498 1.63623 12.6113C2.26319 13.2844 3.14855 13.7141 4.05296 13.7888C5.36238 13.9382 6.67179 13.9944 8.00025 13.9944C9.32788 13.9944 10.6373 13.9004 11.9475 13.7888C12.8511 13.7141 13.7365 13.2844 14.3634 12.6113C14.843 12.0498 15.0832 11.359 15.0832 10.6297C15.0832 9.90122 14.9357 9.22812 14.4744 8.7044Z" fill="#5570F1"/>
<path opacity="0.4" d="M9.67396 15.0236C9.25737 14.9347 6.71888 14.9347 6.30229 15.0236C5.94616 15.1059 5.56104 15.2972 5.56104 15.7169C5.58174 16.1172 5.81613 16.4706 6.14079 16.6946L6.13996 16.6955C6.55987 17.0228 7.05266 17.2309 7.56864 17.3056C7.8436 17.3434 8.12354 17.3417 8.40845 17.3056C8.9236 17.2309 9.41639 17.0228 9.8363 16.6955L9.83547 16.6946C10.1601 16.4706 10.3945 16.1172 10.4152 15.7169C10.4152 15.2972 10.0301 15.1059 9.67396 15.0236Z" fill="#5570F1"/>
</svg>
