<svg xmlns="http://www.w3.org/2000/svg" xmlns:xlink="http://www.w3.org/1999/xlink" width="500" zoomAndPan="magnify" viewBox="0 0 375 374.999991" height="500" preserveAspectRatio="xMidYMid meet" version="1.0"><defs><g/><clipPath id="494d7e2f87"><path d="M 7.207031 309.160156 L 65.839844 309.160156 L 65.839844 367.792969 L 7.207031 367.792969 Z M 7.207031 309.160156 " clip-rule="nonzero"/></clipPath><clipPath id="78c56bbd08"><path d="M 36.523438 309.160156 C 20.332031 309.160156 7.207031 322.285156 7.207031 338.476562 C 7.207031 354.667969 20.332031 367.792969 36.523438 367.792969 C 52.714844 367.792969 65.839844 354.667969 65.839844 338.476562 C 65.839844 322.285156 52.714844 309.160156 36.523438 309.160156 Z M 36.523438 309.160156 " clip-rule="nonzero"/></clipPath><clipPath id="0a3388c258"><path d="M 308.289062 8.082031 L 366.917969 8.082031 L 366.917969 66.710938 L 308.289062 66.710938 Z M 308.289062 8.082031 " clip-rule="nonzero"/></clipPath><clipPath id="b4dbb918b7"><path d="M 337.605469 8.082031 C 321.414062 8.082031 308.289062 21.207031 308.289062 37.394531 C 308.289062 53.585938 321.414062 66.710938 337.605469 66.710938 C 353.792969 66.710938 366.917969 53.585938 366.917969 37.394531 C 366.917969 21.207031 353.792969 8.082031 337.605469 8.082031 Z M 337.605469 8.082031 " clip-rule="nonzero"/></clipPath></defs><g fill="#ffffff" fill-opacity="1"><g transform="translate(185.390617, 277.399991)"><g><path d="M 2.109375 0.078125 C 1.804688 0.078125 1.566406 -0.00390625 1.390625 -0.171875 C 1.222656 -0.335938 1.140625 -0.5625 1.140625 -0.84375 C 1.140625 -1.113281 1.222656 -1.332031 1.390625 -1.5 C 1.566406 -1.675781 1.804688 -1.765625 2.109375 -1.765625 C 2.410156 -1.765625 2.644531 -1.679688 2.8125 -1.515625 C 2.988281 -1.347656 3.078125 -1.128906 3.078125 -0.859375 C 3.078125 -0.578125 2.988281 -0.347656 2.8125 -0.171875 C 2.632812 -0.00390625 2.398438 0.078125 2.109375 0.078125 Z M 2.109375 0.078125 "/></g></g></g><path stroke-linecap="butt" transform="matrix(4.359296, -4.359296, 4.359296, 4.359296, 57.113617, 300.426309)" fill="none" stroke-linejoin="miter" d="M 0.0000220589 1.999937 L 55.616623 1.999937 " stroke="#000000" stroke-width="4" stroke-opacity="1" stroke-miterlimit="4"/><g clip-path="url(#494d7e2f87)"><g clip-path="url(#78c56bbd08)"><path fill="#000000" d="M 7.207031 309.160156 L 65.839844 309.160156 L 65.839844 367.792969 L 7.207031 367.792969 Z M 7.207031 309.160156 " fill-opacity="1" fill-rule="nonzero"/></g></g><g clip-path="url(#0a3388c258)"><g clip-path="url(#b4dbb918b7)"><path fill="#000000" d="M 308.289062 8.082031 L 366.917969 8.082031 L 366.917969 66.710938 L 308.289062 66.710938 Z M 308.289062 8.082031 " fill-opacity="1" fill-rule="nonzero"/></g></g></svg>