<?xml version="1.0" encoding="utf-8"?>

<!DOCTYPE svg PUBLIC "-//W3C//DTD SVG 1.1//EN" "http://www.w3.org/Graphics/SVG/1.1/DTD/svg11.dtd">
<svg version="1.1" id="Layer_1" xmlns="http://www.w3.org/2000/svg" xmlns:xlink="http://www.w3.org/1999/xlink" x="0px" y="0px"
	 viewBox="0 0 1084.768 1757.23" enable-background="new 0 0 1084.768 1757.23" xml:space="preserve">
<path d="M533.98,78.894c220.244-12.538,463.448,174.244,469.045,451.111c-0.005,382.87,0.005,765.735-0.005,1148.606
	c-307.088,0.005-614.171,0.005-921.259,0c0-1230.626-0.194-1151.379,0.366-1158.463C91.702,272.787,299.652,78.786,533.98,78.894
	 M435.071,160.214c-63.746,17.999-117.481,50.145-163.715,93.247c15.503,15.589,111.635,111.754,120.311,120.257
	c63.081-57.98,134.986-57.263,140.43-58.302c-0.011-56.614-0.011-113.223,0-169.837
	C499.319,146.293,466.635,151.328,435.071,160.214 M552.722,145.633c-0.076,56.587,0,113.174-0.038,169.755
	c6.227,1.024,77.251,0.409,140.561,58.302c40.067-39.991,80.096-80.015,120.082-120.082
	C743.468,187.307,652.48,148.646,552.722,145.633 M249.184,276.385c-64.594,71.679-98.569,163.497-100.308,252.533
	c56.62-0.005,113.245,0.033,169.864-0.016c2.021-51.366,22.909-101.673,57.477-139.687c1.632-1.18,6.231,5.515-119.47-120.901
	C254.126,270.897,251.581,273.589,249.184,276.385 M827.978,268.352c-6.537,6.692-100.731,100.881-119.94,119.956
	c3.102,3.877,6.559,7.482,9.579,11.441c29.255,36.485,46.593,82.406,48.505,129.136c56.609,0.087,113.217,0.016,169.826,0.038
	C933.742,430.432,893.593,336.907,827.978,268.352 M496.731,341.18c-36.579,8.354-64.614,24.834-90.521,47.123
	c15.859,15.967,115.631,115.736,125.887,125.865c-0.027-59.317,0.022-118.635-0.027-177.952
	C520.191,336.981,508.33,338.439,496.731,341.18 M552.728,336.287c-0.055,59.296,0.104,118.596-0.033,177.892
	c6.322-6.241,94.612-94.459,125.898-125.821C641.017,355.155,597.645,338.657,552.728,336.287 M379.8,417.339
	c-24.143,32.072-38.473,71.479-40.297,111.585c59.23-0.011,118.454,0.022,177.679-0.016
	c-4.378-4.485-122.14-122.421-125.843-125.745C387.44,407.842,383.41,412.424,379.8,417.339 M658.851,437.583
	c-30.407,30.456-60.912,60.814-91.253,91.33c59.235,0.027,118.465,0.005,177.701,0.011c-1.939-44.477-19.175-88.853-51.896-125.75
	C681.749,414.494,670.39,426.137,658.851,437.583 M148.68,549.675c-0.021,266.071-0.006,243.276,0.126,248.934
	c56.494-0.027,112.993-0.005,169.488-0.011c0.112-10.179,0.075-195.281,0.071-248.918
	C261.804,549.675,205.239,549.675,148.68,549.675 M339.159,549.686c0.267,45.94,0.907,247.901,0.907,248.912
	c161.972-0.025,166.482,0.074,191.949-0.076c0.038-82.953,0.044-165.905,0-248.858C467.727,549.697,403.446,549.654,339.159,549.686
	 M552.793,549.675c-0.021,263.112-0.007,242.949,0.115,248.929c64.238-0.038,128.475,0.049,192.719-0.044
	c0.087-82.958,0.005-165.916,0.038-248.879C681.372,549.664,617.086,549.681,552.793,549.675 M766.471,549.681
	c0,0,0.714,245.036,0.754,248.879c14.99,0.05,149.564,0.076,168.898-0.027c0.082-82.942-0.011-165.883,0.044-248.83
	C879.601,549.643,823.036,549.692,766.471,549.681 M148.68,819.383c0,82.909-0.022,165.812,0.016,248.721
	c56.543,0.044,113.086,0.016,169.629,0.011c0.087-82.914,0.027-165.834,0.033-248.754
	C261.799,819.356,205.239,819.312,148.68,819.383 M340.066,819.394c0,1.001,0.715,213.406,0.923,248.705
	c63.642,0.076,127.29-0.033,190.933,0.055c0.294-3.876-0.002-81.21,0.147-248.699C528.791,819.231,343.36,819.389,340.066,819.394
	 M552.799,819.383c-0.005,82.903-0.022,165.807,0.005,248.716c12.638,0.021,174.979,0.08,192.888-0.082
	c-0.065-82.865-0.016-165.725-0.022-248.59C742.666,819.26,556.835,819.378,552.799,819.383 M767.258,819.421
	c0,0.003,0.945,248.699,0.945,248.699c55.953,0.016,111.901-0.022,167.849,0.022c0.264-3.166-0.017-111.117,0.142-248.672
	C928.922,819.251,789.016,819.346,767.258,819.421 M148.652,1089.074c0.066,82.882,0,165.769,0.027,248.656
	c56.56,0.033,113.119,0.016,169.684,0.005c0.011-82.92,0-165.845,0.005-248.765C309.145,1088.949,158.747,1088.803,148.652,1089.074
	 M341.125,1088.911c0,0.002,0.623,248.797,0.623,248.798c11.659,0.041,162.883,0.076,190.305-0.016
	c-0.06-82.914,0.044-165.829-0.049-248.737C468.377,1088.878,404.751,1088.96,341.125,1088.911 M552.777,1089.042
	c0.033,82.898,0,165.79,0.016,248.688c64.292,0.016,128.579,0.049,192.866-0.016c-0.016-82.92,0.044-165.839-0.027-248.754
	C734.822,1088.942,563.483,1088.83,552.777,1089.042 M768.219,1088.916c-0.03,14.162,0.729,232.461,0.836,248.819
	c55.708-0.016,111.415,0.087,167.117-0.055c-0.066-82.903,0.027-165.812-0.044-248.716
	C880.158,1088.867,824.189,1088.96,768.219,1088.916 M148.745,1358.498c-0.108,12.507-0.081,211.985-0.027,248.967
	c56.549,0.011,113.097,0.005,169.646,0c-0.016-82.985,0.044-165.976-0.033-248.961
	C261.804,1358.493,205.277,1358.498,148.745,1358.498 M341.917,1358.547c0.001,1.007,0.882,228.439,0.874,248.923
	c63.085-0.044,126.176,0.093,189.256-0.071c-0.011-82.931-0.022-165.862,0.011-248.792
	C527.349,1358.372,346.582,1358.539,341.917,1358.547 M552.864,1358.498c-0.112,13.876-0.089,211.511-0.033,248.967
	c64.276,0.005,128.557,0.011,192.833,0c-0.022-82.98,0.027-165.954-0.022-248.929
	C681.383,1358.449,617.118,1358.52,552.864,1358.498 M769.174,1358.504c0.004,1,0.517,160.768,0.688,248.945
	c13.533,0.025,148.33,0.054,166.298-0.049c-0.034-111.262,0.048-226.972-0.087-248.907
	C880.442,1358.504,824.811,1358.493,769.174,1358.504z"/>
</svg>
